<?xml version="1.0" encoding="UTF-8" standalone="no"?>
<!-- Created with Inkscape (http://www.inkscape.org/) -->

<svg
   xmlns:dc="http://purl.org/dc/elements/1.1/"
   xmlns:cc="http://creativecommons.org/ns#"
   xmlns:rdf="http://www.w3.org/1999/02/22-rdf-syntax-ns#"
   xmlns:svg="http://www.w3.org/2000/svg"
   xmlns="http://www.w3.org/2000/svg"
   xmlns:xlink="http://www.w3.org/1999/xlink"
   xmlns:sodipodi="http://sodipodi.sourceforge.net/DTD/sodipodi-0.dtd"
   xmlns:inkscape="http://www.inkscape.org/namespaces/inkscape"
   width="260mm"
   height="100mm"
   viewBox="0 0 260 100"
   version="1.1"
   id="svg8"
   inkscape:version="0.92.4 (unknown)"
   sodipodi:docname="combined3.svg">
  <defs
     id="defs2">
    <clipPath
       id="clipPathBlackFlag"
       clipPathUnits="userSpaceOnUse">
      <rect
         y="31.564659"
         x="5.920351"
         height="104.78545"
         width="154.07407"
         id="rect3813" />
    </clipPath>
    <clipPath
       clipPathUnits="userSpaceOnUse"
       id="clipPathElephant">
      <use
         x="0"
         y="0"
         xlink:href="#g975"
         id="use981"
         width="100%"
         height="100%" />
    </clipPath>
    <pattern
       patternUnits="userSpaceOnUse"
       width="744.39439"
       height="245.99381"
       patternTransform="matrix(0.26458333,0,0,0.26458333,32.343917,213.82677)"
       id="pattern834">
      <g
         transform="matrix(7.4288795,0,0,7.4288795,-242.26458,-651.33113)"
         id="g991">
        <g
           id="g977"
           clip-path="url(#clipPathElephant)">
          <g
             inkscape:label="Clip"
             id="g975">
            <path
               inkscape:connector-curvature="0"
               style="display:inline;fill:#000008;fill-opacity:1"
               d="M 14.036311,26.389446 V 9.5819455 c 0,-0.44375 -0.008,-0.8674997 -0.022,-1.2699997 -0.0127,-0.4012 -0.0752,-0.78245 -0.186,-1.1437 -0.11087,-0.41625 -0.29888,-0.8325 -0.56212,-1.2475 -0.26313,-0.41625 -0.63126,-0.87375 -1.10251,-1.37375 h 12.024 c 2.63576,0 4.70063,0.645 6.19913,1.935 1.49713,1.29 2.2735,2.6974997 2.32963,4.2224992 v 0.0625 0.0625 c 0,1.552501 -0.374,2.697501 -1.123,3.432501 -0.7492,0.7362 -1.5674,1.2687 -2.4556,1.6012 -0.0551,0.0287 -0.1035,0.05 -0.1445,0.0637 -0.042,0.0125 -0.0766,0.02 -0.105,0.02 2.55225,0.9425 4.09175,2.09375 4.61913,3.4525 0.52587,1.36 0.78912,2.8575 0.78912,4.49375 -0.10987,2.58 -1.16362,4.4375 -3.16062,5.575 -1.99813,1.1375 -4.2715,1.70625 -6.82375,1.70625 -0.083,0 -0.1665,-0.008 -0.25,-0.0213 -0.0825,-0.0138 -0.166,-0.02 -0.24913,-0.02 -0.0546,0 -0.104,-0.007 -0.14637,-0.0212 -0.0415,-0.0138 -0.0889,-0.0213 -0.14513,-0.0213 h -0.145 -0.1455 -11.3999 c 0.80374,-0.24875 1.3525,-0.7275 1.64312,-1.43625 0.29188,-0.705 0.46475,-1.4625 0.5195,-2.26625 0.0282,-0.16625 0.0425,-0.33375 0.0425,-0.5 v -0.49875 z m 93.997999,134.975994 0.01,-0.006 4.8675,-14.6398 c 0.055,-0.22212 0.125,-0.44375 0.2075,-0.665 0.0838,-0.22312 0.16625,-0.44487 0.25,-0.667 0.19375,-0.52637 0.37375,-1.0395 0.54,-1.539 0.1675,-0.49912 0.25,-0.95662 0.25,-1.37312 0,-0.167 -0.0138,-0.32613 -0.0413,-0.478 -0.0275,-0.15338 -0.07,-0.3125 -0.125,-0.478 -0.11125,-0.30613 -0.305,-0.61725 -0.58375,-0.937 -0.27625,-0.31888 -0.65125,-0.6035 -1.1225,-0.85263 h 10.4425 l 8.8625,22.7989 c 0.11,0.61087 0.395,1.17962 0.85375,1.7065 0.4575,0.52687 0.94875,0.99812 1.47625,1.41412 0.13875,0.11125 0.27,0.21488 0.39625,0.3115 0.12375,0.0976 0.25625,0.20213 0.395,0.3125 h -13.2312 c 0.0275,0 0.0475,-0.007 0.0625,-0.021 0.015,-0.0131 0.035,-0.0346 0.0625,-0.062 0.38875,-0.27787 0.74875,-0.56787 1.08125,-0.8735 0.3325,-0.30525 0.56875,-0.6245 0.7075,-0.95712 0.0562,-0.083 0.09,-0.167 0.10375,-0.25 0.015,-0.0825 0.0213,-0.166 0.0213,-0.2495 0,-0.0272 -0.006,-0.0756 -0.0213,-0.145 -0.0138,-0.0702 -0.0213,-0.13225 -0.0213,-0.187 -0.0263,-0.0845 -0.0475,-0.15963 -0.0625,-0.2295 -0.0138,-0.0694 -0.0337,-0.11763 -0.0612,-0.1455 l -1.58125,-4.74363 h -7.905 l -1.58125,4.11913 c 0,0.0288 -0.008,0.0766 -0.02,0.1455 -0.015,0.0699 -0.0213,0.13187 -0.0213,0.188 v 0.0205 0.021 c 0,0.0556 -0.006,0.11762 -0.02,0.187 -0.015,0.0699 -0.0213,0.11812 -0.0213,0.146 0,0.11037 0.006,0.21537 0.0213,0.312 0.0138,0.0962 0.0337,0.1875 0.0613,0.27 0.0825,0.44437 0.2925,0.88037 0.625,1.31112 0.3325,0.43013 0.74875,0.8115 1.2475,1.1435 H 89.671111 c 0.80412,-0.63775 1.31787,-1.29687 1.5395,-1.97612 0.22125,-0.67963 0.332,-1.49113 0.332,-2.4335 v -16.7666 c 0,-1.55325 -0.20063,-2.65675 -0.6025,-3.30762 -0.40288,-0.65138 -0.90775,-1.21388 -1.519,-1.6855 -0.0274,0 -0.0489,-0.006 -0.062,-0.0201 -0.0138,-0.0146 -0.0205,-0.021 -0.0205,-0.021 h 12.023399 c -0.94337,0.77588 -1.490749,1.66313 -1.643999,2.66213 -0.15187,0.9995 -0.22799,2.233 -0.22799,3.70262 v 15.4361 c 0.11024,0.0272 0.22799,0.0478 0.35299,0.062 0.125,0.0141 0.256379,0.0351 0.394999,0.0625 0.38863,0.0825 0.82613,0.15325 1.3105,0.208 0.48638,0.0561 0.97763,0.0835 1.47763,0.0835 0.19375,0 0.3945,-0.008 0.6035,-0.021 0.2075,-0.0138 0.42288,-0.02 0.6445,-0.02 1.082,-0.0835 2.094,-0.27788 3.03775,-0.5835 l 0.0238,-0.008 0.0138,-0.004 0.005,-0.002 0.007,-0.002 10e-4,-5e-4 0.0238,-0.008 0.0113,-0.004 0.002,-0.002 0.0175,-0.006 0.006,-5e-4 0.0112,-0.005 0.025,-0.008 v -0.001 l 0.0425,-0.0146 0.0162,-0.006 h 0.001 l 0.006,-0.002 0.005,-10e-4 0.0125,-0.005 0.0125,-0.004 0.035,-0.0136 0.0113,-0.005 0.007,-0.002 0.04,-0.0161 0.0225,-0.009 0.0113,-0.005 0.001,-8.7e-4 0.0337,-0.0138 0.0113,-0.004 0.001,-5e-4 v -10e-4 l 0.0175,-0.007 0.002,-0.003 0.0125,-0.003 0.006,-0.002 0.005,-0.003 0.0225,-0.009 0.0113,-0.005 h 10e-4 l 0.01,-0.004 0.001,-5e-4 0.0638,-0.0277 v -5e-4 l 0.0375,-0.0171 0.006,-0.003 0.01,-0.004 0.01,-0.005 0.0113,-0.006 h 0.001 l 0.009,-0.005 0.0113,-0.005 0.001,-0.001 0.015,-0.007 0.015,-0.007 0.01,-0.004 0.01,-0.006 h 0.001 z M 35.415411,26.681446 V 9.9139455 c 0,-1.5524997 -0.20075,-2.6549997 -0.603,-3.3074997 -0.4023,-0.65125 -0.9087,-1.2125 -1.5191,-1.68375 -0.0272,0 -0.0478,-0.007 -0.062,-0.0212 -0.0141,-0.0138 -0.0215,-0.02 -0.0215,-0.02 h 12.024 c -0.94238,0.77625 -1.49075,1.6625 -1.64262,2.6625 -0.15326,0.9975 -0.22951,2.2324997 -0.22951,3.7024992 v 15.435001 c 0.11138,0.0275 0.22951,0.0487 0.35451,0.0625 0.1245,0.0137 0.25587,0.0362 0.3945,0.0625 0.38824,0.0825 0.82524,0.1525 1.31112,0.20875 0.48525,0.055 0.9775,0.0838 1.4765,0.0838 0.19338,0 0.396,-0.009 0.603,-0.0225 0.209,-0.0125 0.42237,-0.0212 0.64513,-0.0212 1.082,-0.0825 2.09412,-0.275 3.03699,-0.58125 l 0.0122,-0.004 0.0133,-0.004 0.0116,-0.005 0.007,-0.002 0.006,-0.002 0.0118,-0.005 0.0121,-0.002 0.0127,-0.004 10e-4,-0.001 0.002,-0.001 0.0166,-0.005 0.005,-10e-4 0.0127,-0.005 0.006,-10e-4 0.0143,-0.005 0.006,-0.003 0.0435,-0.015 h 0.002 l 0.0121,-0.006 0.007,-0.002 0.0518,-0.0188 0.0122,-0.004 0.0229,-0.01 0.0123,-0.004 10e-4,-0.001 0.0185,-0.006 0.002,-0.001 0.002,-0.001 0.009,-0.004 0.0118,-0.004 0.0118,-0.005 0.0118,-0.004 0.0108,-0.005 0.0112,-0.006 0.0224,-0.009 0.0118,-0.004 0.0118,-0.005 0.008,-0.002 0.002,-0.002 0.0107,-0.005 0.0116,-0.004 0.0118,-0.005 0.002,-0.002 0.038,-0.015 0.003,-0.002 0.01,-0.004 0.0118,-0.005 0.0107,-0.005 0.004,-0.001 0.006,-0.004 0.0116,-0.005 0.0107,-0.005 0.008,-0.004 10e-4,-0.001 0.0108,-0.004 0.022,-0.01 0.002,-0.002 0.007,-0.004 0.0112,-0.005 0.0108,-0.004 0.009,-0.005 h 10e-4 l 0.0108,-0.006 0.01,-0.004 0.0102,-0.005 0.004,-0.002 0.006,-0.004 4.86825,-14.642501 c 0.0546,-0.22125 0.1245,-0.44375 0.207,-0.66625 0.0835,-0.22125 0.1665,-0.44375 0.2505,-0.665 0.19388,-0.5262495 0.3735,-1.0399995 0.54051,-1.5387492 0.16649,-0.5 0.24899,-0.9575 0.24899,-1.37375 0,-0.16625 -0.0136,-0.32625 -0.041,-0.4775 -0.0274,-0.15375 -0.0689,-0.3125 -0.125,-0.48 -0.11087,-0.305 -0.30462,-0.61625 -0.5825,-0.935 -0.27687,-0.32 -0.65137,-0.60375 -1.123,-0.85375 h 10.4429 l 8.86175,22.8000002 c 0.11137,0.61 0.395,1.1775 0.853,1.705 0.4575,0.5275 0.94975,0.99875 1.47662,1.415 0.13863,0.11125 0.271,0.215 0.3955,0.3125 0.1245,0.0962 0.25688,0.20125 0.3955,0.31125 h -13.231 c 0.0289,0 0.0494,-0.006 0.0625,-0.02 0.0143,-0.0137 0.0348,-0.035 0.063,-0.0625 0.38775,-0.2775 0.7485,-0.56875 1.08163,-0.875 0.3325,-0.30375 0.56775,-0.6225 0.7075,-0.95625 0.0541,-0.0825 0.0897,-0.16625 0.103,-0.24875 0.0141,-0.0838 0.022,-0.1675 0.022,-0.25 0,-0.0288 -0.008,-0.0775 -0.022,-0.14625 -0.0132,-0.07 -0.02,-0.1325 -0.02,-0.1875 -0.0289,-0.0825 -0.0494,-0.15875 -0.0635,-0.2275 -0.0133,-0.07 -0.0337,-0.11875 -0.062,-0.14625 l -1.58013,-4.74375 h -7.90475 l -1.5815,4.12 c 0,0.0263 -0.007,0.075 -0.021,0.14625 -0.0133,0.0687 -0.021,0.13 -0.021,0.18625 v 0.0212 0.02 c 0,0.0563 -0.006,0.11875 -0.0205,0.18875 -0.0143,0.0687 -0.0205,0.11625 -0.0205,0.145 0,0.11125 0.006,0.21375 0.0205,0.31125 0.0141,0.0962 0.0351,0.1875 0.0625,0.27125 0.083,0.4425 0.2915,0.88 0.6245,1.31 0.3325,0.43 0.749,0.81125 1.247,1.14375 h -24.4849 c 0.80425,-0.6375 1.31687,-1.29625 1.53862,-1.97625 0.22213,-0.67875 0.3335,-1.49125 0.3335,-2.43375 z m 40.3667,-8.5287 c 0.1382,-5.6588 1.7681,-9.4438002 4.8877,-11.3576002 3.1206,-1.9137 6.5395,-2.8712 10.2554,-2.8712 h 0.687 c 0.23637,0 0.46387,0.0138 0.686,0.0413 0.80475,0.0275 1.59575,0.09 2.37162,0.1875 0.77688,0.0962 1.52537,0.20125 2.24613,0.3125 0.14012,0 0.26462,0.006 0.37549,0.02 0.11076,0.0138 0.22113,0.035 0.33251,0.0625 v 5.6587492 c -0.166,-0.11125 -0.3545,-0.2224995 -0.562,-0.3337495 -0.208,-0.11005 -0.4087,-0.22255 -0.6035,-0.3313 -0.7476,-0.38875 -1.6011,-0.74375 -2.5576,-1.0624997 -0.9571,-0.31875 -2.0459,-0.4775 -3.2661,-0.4775 h -0.2505 c -1.99613,0 -3.57713,0.9699997 -4.74225,2.9124992 -1.165,1.941251 -1.748,4.090001 -1.748,6.448751 v 0.27 0.27 c 0.11137,2.22 0.812,4.27875 2.102,6.17875 1.28962,1.9 3.2515,2.98875 5.88675,3.26625 h 0.187 0.2285 c 0.0553,0.0263 0.11775,0.0412 0.18799,0.0412 h 0.18613 c 0.44425,0 0.90225,-0.0275 1.373,-0.0837 0.47213,-0.0563 0.94338,-0.13875 1.415,-0.25 0.83213,-0.1925 1.65038,-0.42875 2.45513,-0.70625 0.80462,-0.2775 1.539,-0.56875 2.204619,-0.87375 0.22263,-0.11 0.4365,-0.22125 0.6455,-0.33375 0.2075,-0.11 0.40863,-0.22125 0.603,-0.3325 l -1.872119,5.99125 c -0.88813,0.16625 -1.8305,0.3125 -2.829,0.4375 -0.99863,0.125 -2.01075,0.22875 -3.03763,0.3125 -0.333,0 -0.65875,0.006 -0.97762,0.02 -0.31925,0.0138 -0.63075,0.02 -0.9365,0.02 h -0.27 -0.2705 c -3.6329,-0.0822 -7.0035,-1.046 -10.11,-2.891 -3.1064,-1.8437 -4.8681,-5.36 -5.2832,-10.5462 z M 102.65911,9.2902455 c 0,-0.9699997 -0.166,-1.7949997 -0.4995,-2.4737497 -0.333,-0.68 -0.90087,-1.32625 -1.706,-1.935 h 11.6922 c -0.14,0.11 -0.265,0.2075 -0.375,0.29 -0.11125,0.0838 -0.2225,0.18 -0.33375,0.29125 -0.389,0.33245 -0.679,0.70745 -0.874,1.1237 -0.194,0.41625 -0.29,0.9975 -0.29,1.7475 v 8.2375002 l 5.99,-7.9450002 c 0.194,-0.2225 0.333,-0.4525 0.415,-0.6875 0.0838,-0.23625 0.12625,-0.45125 0.12625,-0.645 0,-0.2225 -0.0688,-0.4575 -0.20875,-0.7075 -0.13875,-0.25 -0.31875,-0.49875 -0.54125,-0.74875 -0.13875,-0.1675 -0.2975,-0.32625 -0.4775,-0.4775 -0.18,-0.15375 -0.38125,-0.3125 -0.6025,-0.47875 h 10.7738 l -9.19375,10.7338002 7.3225,11.0662 c 0.11125,0.195 0.22875,0.38875 0.35375,0.5825 0.125,0.19375 0.2425,0.38875 0.35375,0.5825 0.415,0.63875 0.85375,1.24875 1.31,1.83125 0.4575,0.5825 0.93625,1.05375 1.435,1.41375 h -5.99 c -1.1375,0 -2.10125,-0.0975 -2.8925,-0.29125 -0.79,-0.19375 -1.545,-0.6925 -2.2675,-1.4975 -0.19375,-0.2225 -0.395,-0.47125 -0.6025,-0.74875 -0.2075,-0.2775 -0.41,-0.5825 -0.6025,-0.915 l -4.70125,-7.905 v 7.61375 c 0,0.8875 0.18,1.635 0.54,2.24625 0.36,0.61 0.7625,1.08125 1.20625,1.415 0.0288,0.0275 0.0488,0.0488 0.0625,0.0625 0.0138,0.0138 0.035,0.02 0.0638,0.02 h -11.6922 c 0.55513,-0.2225 0.9985,-0.6175 1.3315,-1.185 0.3335,-0.57 0.56838,-1.15875 0.708,-1.76875 0.0551,-0.25 0.0962,-0.49875 0.124,-0.74875 0.0279,-0.25 0.042,-0.485 0.042,-0.7075 V 9.2902455 Z M 74.556611,144.76524 c 0,-1.249 -0.146,-2.28175 -0.4365,-3.10012 -0.292,-0.81788 -0.67287,-1.46288 -1.14462,-1.93413 h 8.77887 1.54 c 0.63775,0 1.30325,-0.0141 1.99613,-0.042 0.77737,0 1.5185,-0.0205 2.226,-0.0625 0.70812,-0.0405 1.22712,-0.1035 1.55962,-0.187 v 5.94925 c -0.0269,-0.0269 -0.0474,-0.0479 -0.0625,-0.0625 -0.0136,-0.0131 -0.0346,-0.0346 -0.062,-0.062 -0.0548,-0.0561 -0.1035,-0.1035 -0.146,-0.146 -0.0405,-0.041 -0.0899,-0.0899 -0.146,-0.146 -0.38725,-0.38725 -0.83062,-0.7265 -1.33012,-1.019 -0.4995,-0.2915 -1.289,-0.437 -2.372,-0.437 h -2.57913 v 6.65763 h 1.6645 c 0.47125,0 0.94338,-0.0136 1.41413,-0.042 0.47112,-0.0272 0.94337,-0.11075 1.4145,-0.2495 v 5.94975 c -0.083,-0.084 -0.166,-0.167 -0.2495,-0.25 -0.083,-0.083 -0.166,-0.18063 -0.2495,-0.2905 -0.22263,-0.25 -0.47163,-0.48638 -0.748,-0.7085 -0.27838,-0.22125 -0.59725,-0.3325 -0.957,-0.3325 h -2.28913 v 7.61425 c 0,0.27775 0.0351,0.582 0.1045,0.916 0.0689,0.3325 0.15913,0.664 0.2705,0.9975 0.19288,0.4995 0.44388,0.97175 0.748,1.41462 0.30525,0.44375 0.69388,0.80363 1.16613,1.0815 h -11.692 c 0,0 0.008,-0.007 0.021,-0.021 0.0143,-0.0131 0.0205,-0.0346 0.0205,-0.062 0.083,-0.11087 0.1665,-0.22162 0.2505,-0.3325 0.0825,-0.11137 0.16562,-0.22225 0.24862,-0.3325 0.25,-0.38925 0.48625,-0.85987 0.708,-1.41562 0.22113,-0.55363 0.3325,-1.30363 0.3325,-2.246 v -17.0996 z m 56.905499,8.56975 c 0.16625,-4.71425 1.435,-8.09812 3.80625,-10.1514 2.37125,-2.05225 4.9725,-3.32763 7.80125,-3.82763 0.6375,-0.11125 1.275,-0.19425 1.91375,-0.249 0.6375,-0.0556 1.26125,-0.084 1.8725,-0.084 1.11,0 2.18375,0.0704 3.22375,0.2085 1.04,0.13875 1.9075,0.30525 2.6,0.4995 v 5.99125 c -0.49875,-0.4165 -1.025,-0.77687 -1.58,-1.0825 -0.55625,-0.30525 -1.11,-0.55375 -1.66375,-0.7485 -0.5,-0.19437 -1,-0.33262 -1.49875,-0.4165 -0.5,-0.0826 -0.985,-0.12412 -1.45625,-0.12412 -1.88625,0 -3.565,0.70025 -5.03375,2.10062 -1.47125,1.40138 -2.20625,3.3775 -2.20625,5.92875 0,0.0278 0.007,0.0556 0.0213,0.0835 0.0138,0.0283 0.0213,0.0551 0.0213,0.083 0,0.0282 0.007,0.0551 0.0213,0.084 0.0138,0.0269 0.02,0.0687 0.02,0.124 0,0.5825 0.0425,1.28225 0.125,2.1015 0.0825,0.81838 0.25,1.67 0.49875,2.55813 0.41625,1.49812 1.1175,2.878 2.1025,4.13962 0.98375,1.26225 2.43375,1.89313 4.3475,1.89313 0.165,0 0.34625,-0.0141 0.54,-0.0415 0.195,-0.0274 0.4025,-0.0689 0.625,-0.1245 h 0.0838 0.0825 c 0.055,-0.0274 0.12375,-0.0494 0.2075,-0.062 0.0825,-0.0143 0.16625,-0.0215 0.25,-0.0215 v -5.65825 c 0,-1.10988 -0.0838,-1.94825 -0.25,-2.51713 -0.16625,-0.56875 -0.47125,-1.08875 -0.915,-1.5605 0,0 -0.007,-0.007 -0.0213,-0.0205 -0.0137,-0.0136 -0.035,-0.0341 -0.0625,-0.063 h 8.2375 v 13.2725 c -0.5275,0.166 -1.05375,0.3115 -1.58125,0.437 -0.52625,0.125 -1.05375,0.21488 -1.58125,0.271 -0.8025,0.13813 -1.6,0.24213 -2.39125,0.3115 -0.79,0.0694 -1.56,0.1045 -2.30875,0.1045 -4.3825,0 -8.12,-1.17237 -11.2125,-3.51562 -3.09375,-2.34475 -4.63875,-5.65138 -4.63875,-9.92388 z M 8.168111,129.70999 h 35.1182 V 34.622396 h -35.1182 z m 38.754,6.64013 h 35.1161 V 41.262326 h -35.1161 z m 39.6528,-6.64013 H 121.69191 V 34.622396 H 86.574911 Z m 38.301999,6.64013 h 35.1175 V 41.262326 h -35.1175 z m -9.76125,17.9005 h 5.07625 l -2.82875,-7.82188 z M 58.985061,19.068626 h 5.07524 l -2.8286,-7.821301 -2.2466,7.821301 z m -37.4189,7.6137 c 0.36038,0.16625 0.707,0.305 1.04,0.4175 0.333,0.11 0.63775,0.165 0.915,0.165 0.99863,0 1.7955,-0.38125 2.39212,-1.14375 0.59676,-0.76375 0.95076,-1.61625 1.06063,-2.55875 v -0.7075 c 0,-1.13625 -0.34625,-2.17 -1.03962,-3.09875 -0.69288,-0.93 -1.77488,-1.39375 -3.24563,-1.39375 -0.0825,0 -0.17237,0.006 -0.2695,0.02 -0.0961,0.015 -0.188,0.0213 -0.271,0.0213 -0.11087,0 -0.21537,0.006 -0.3125,0.02 -0.0966,0.0138 -0.186,0.0213 -0.2695,0.0213 v 8.2375 z m 0,-11.9812 c 0.0556,0.0263 0.11813,0.0475 0.187,0.0613 0.0689,0.015 0.1455,0.035 0.2285,0.0625 0.0556,0 0.11863,0.008 0.1875,0.02 0.0694,0.015 0.13188,0.0225 0.1875,0.0225 0.7485,0 1.32425,-0.305 1.72563,-0.91625 0.40275,-0.61 0.6455,-1.27625 0.7295,-1.99625 v -0.22875 -0.187501 -0.45875 -0.1025 -0.105 c -0.0563,-0.6375 -0.3267,-1.2211995 -0.812,-1.7461995 -0.4853,-0.5274997 -1.1303,-0.7912497 -1.9341,-0.7912497 h -0.4995 v 6.3662502"
               id="path4172"
               clip-path="url(#clipPathBlackFlag)"
               transform="matrix(0.26458333,0,0,0.26458333,90.482116,82.152051)" />
            <g
               transform="matrix(0.26458333,0,0,0.26458333,20.10141,75.906126)"
               id="g992">
              <g
                 style="opacity:1"
                 id="g3912">
                <g
                   id="g3876"
                   transform="matrix(0.15,0,0,0.15,7.89,-21.46)">
                  <path
                     style="fill:#000000;fill-opacity:1;fill-rule:evenodd"
                     inkscape:connector-curvature="0"
                     transform="translate(-44.286,150.93)"
                     d="m 720.56,288.69 c -3.8785,-0.004 -7.7816,0.007 -11.707,0.0312 -215.33,1.3515 -401.98,49.795 -401.96,287.12 0.004,61.448 2.107,66.398 38,66.291 35.505,-0.10987 736.28,-0.85005 736.79,-0.84375 27.427,0.34084 34.753,-6.3263 34.623,-53.201 -0.6688,-241.48 -151.4,-299.15 -395.75,-299.39 z m 371.68,377.5 c -27.439,0.54879 -708.75,0.66317 -753.26,0.42187 -22.202,-0.12723 -29.979,5.9118 -29.979,24.912 0,39.304 -2.973,342.86003 -1.2656,392.25003 0.67134,19.419 11.401,25.145 25.756,25.334 32.092,0.4223 111.89,1.4725 141.45,0.8437 20.267,-0.4223 28.992,-10.111 29.979,-39.268 0.92446,-27.335 -0.43421,-72.63103 0.42188,-113.16003 0.28867,-13.666 5.0664,-23.644 19,-24.066 35.315,-1.0701 171.06,-1.0878 198.03,-0.42187 34.201,0.84449 39.691,0.42137 40.535,35.889 1.0035,42.148 0.84287,67.981 -0.42382,100.49 -1.3533,34.735 10.135,38 28.713,38.422 27.438,0.6236 90.779,-0.8903 122.45,-0.4219 42.103,0.604 41.319,-12.226 41.801,-67.135 0.21772,-23.648 0.0356,-106.02 -0.84375,-143.56 -0.21842,-9.3247 4.646,-15.94 10.979,-16.045 25.815,-0.4222 31.19,67.146 37.57799,100.91 23.683,125.18 78.428,141.15 128.36,141.45 62.59,0.3921 122.23,-51.499 122.45,-158.34 0.033,-16.086 -3.3787,-29.979 -15.201,-29.979 -52.792,0 -21.963,0.7739 -49.822,0 -14.778,-0.4222 -27.868,1.6879 -24.912,24.488 2.9556,22.8 4.2539,65.3 -24.49,66.291 -12.245,0.4222 -21.955,-8.4458 -21.955,-33.357 0,-24.912 -1.7543,-278.69 -2.5332,-298.94 -0.4223,-10.978 -0.8449,-27.446 -22.801,-27.023 z"
                     id="trunk" />
                  <path
                     style="fill:#ffffff;fill-rule:evenodd"
                     inkscape:connector-curvature="0"
                     id="path3874"
                     transform="translate(-44.286,150.93)"
                     d="m 651.38,387.97 23.482,73.174 -62.135,45.787 76.848,0.27929 24.346,73.244 24.014,-73 77.182,-0.52343 -62.008,-45.395 23.355,-73.566 -62.336,44.945 -62.748,-44.945 z m 235.18,0.8457 23.482,73.172 -62.135,45.789 76.848,0.2793 24.348,73.242 24.012,-73 77.182,-0.52148 -62.006,-45.396 23.353,-73.564 -62.336,44.943 -62.748,-44.943 z m -470.79,0.0274 23.482,73.172 -62.135,45.789 76.848,0.27735 24.346,73.244 24.014,-73 77.182,-0.52149 -62.008,-45.396 23.354,-73.564 -62.334,44.943 -62.748,-44.943 z" />
                </g>
              </g>
            </g>
          </g>
        </g>
      </g>
    </pattern>
  </defs>
  <sodipodi:namedview
     id="base"
     pagecolor="#ffffff"
     bordercolor="#666666"
     borderopacity="1.0"
     inkscape:pageopacity="0.0"
     inkscape:pageshadow="2"
     inkscape:zoom="1.06"
     inkscape:cx="438.99487"
     inkscape:cy="167.70842"
     inkscape:document-units="mm"
     inkscape:current-layer="layer1"
     showgrid="false"
     inkscape:window-width="1920"
     inkscape:window-height="1016"
     inkscape:window-x="0"
     inkscape:window-y="27"
     inkscape:window-maximized="1" />
  <metadata
     id="metadata5">
    <rdf:RDF>
      <cc:Work
         rdf:about="">
        <dc:format>image/svg+xml</dc:format>
        <dc:type
           rdf:resource="http://purl.org/dc/dcmitype/StillImage" />
        <dc:title></dc:title>
      </cc:Work>
    </rdf:RDF>
  </metadata>
  <g
     inkscape:label="Layer 1"
     inkscape:groupmode="layer"
     id="layer1"
     transform="translate(0,-197)">
    <g
       transform="matrix(0.26458333,0,0,0.26458333,90.482116,82.152051)"
       style="display:inline"
       inkscape:label="SVG"
       id="layer2" />
    <rect
       style="fill:url(#pattern834);stroke:none"
       width="196.95435"
       height="65.085861"
       x="32.343918"
       y="213.82677"
       id="rect845" />
  </g>
</svg>
